<?xml version="1.0" standalone="no"?><!DOCTYPE svg PUBLIC "-//W3C//DTD SVG 1.1//EN" "http://www.w3.org/Graphics/SVG/1.1/DTD/svg11.dtd"><svg class="icon" width="200px" height="200.00px" viewBox="0 0 1024 1024" version="1.1" xmlns="http://www.w3.org/2000/svg"><path fill="#cdcdcd" d="M561.057477 888.418462C539.703138 900.192492 375.215262 984.152615 375.215262 984.152615 348.421908 999.418092 315.281723 997.346462 300.142277 967.563815L241.246523 820.137354C95.456492 742.350769 0 601.235692 0 450.999138 0 222.290708 220.772431 35.444185 512 35.444185 790.409846 35.444185 1024 215.169969 1024 450.999138 1024 670.343877 816.445046 866.305969 561.057477 888.418462ZM512.005908 92.439631C270.208 92.439631 57.038769 250.866215 57.038769 451.005046 57.038769 587.090708 152.711877 712.751262 294.291692 782.999631L343.049846 918.734769C352.070892 937.666954 349.965785 933.206646 375.408246 919.002585L547.079877 832.275692C779.492431 815.417108 966.967138 631.609108 966.967138 451.005046 966.967138 250.866215 751.661292 92.439631 512.005908 92.439631ZM720.746338 506.102154C706.319754 506.102154 691.975877 500.271262 681.7792 490.245908 671.574646 480.222523 665.631508 466.138585 665.631508 451.958154 665.631508 437.7856 671.574646 423.701662 681.7792 413.676308 691.975877 403.650954 706.319754 397.812185 720.746338 397.812185 735.1808 397.812185 749.5168 403.650954 759.721354 413.676308 769.921969 423.701662 775.8592 437.7856 775.8592 451.958154 775.8592 466.138585 769.921969 480.222523 759.721354 490.245908 749.5168 500.271262 735.1808 506.102154 720.746338 506.102154ZM505.115569 508.071385C490.423138 508.071385 475.813415 502.027815 465.427692 491.638154 455.034092 481.250462 448.980677 466.654523 448.980677 451.960123 448.980677 437.271631 455.034092 422.675692 465.427692 412.286031 475.813415 401.896369 490.423138 395.844923 505.115569 395.844923 519.817846 395.844923 534.419692 401.896369 544.811323 412.286031 555.202954 422.675692 561.250462 437.271631 561.250462 451.960123 561.250462 466.654523 555.202954 481.250462 544.811323 491.638154 534.419692 502.027815 519.817846 508.071385 505.115569 508.071385ZM303.269415 508.071385C288.834954 508.071385 274.498954 502.134154 264.2944 491.927631 254.093785 481.721108 248.156554 467.381169 248.156554 452.942769 248.156554 438.512246 254.093785 424.172308 264.2944 413.965785 274.498954 403.759262 288.834954 397.814154 303.269415 397.814154 317.696 397.814154 332.039877 403.759262 342.236554 413.965785 352.439138 424.172308 358.382277 438.512246 358.382277 452.942769 358.382277 467.381169 352.439138 481.721108 342.236554 491.927631 332.039877 502.134154 317.696 508.071385 303.269415 508.071385Z" /></svg>