<?xml version="1.0" standalone="no"?><!DOCTYPE svg PUBLIC "-//W3C//DTD SVG 1.1//EN" "http://www.w3.org/Graphics/SVG/1.1/DTD/svg11.dtd"><svg class="icon" width="200px" height="200.00px" viewBox="0 0 1024 1024" version="1.1" xmlns="http://www.w3.org/2000/svg"><path fill="#cdcdcd" d="M938.666667 917.333333c0-12.8-8.533333-21.333333-21.333334-21.333333H85.333333c-12.8 0-21.333333 8.533333-21.333333 21.333333v21.333334c0 12.8 8.533333 21.333333 21.333333 21.333333h832c12.8 0 21.333333-8.533333 21.333334-21.333333v-21.333334zM490.666667 800c10.666667 8.533333 23.466667 12.8 34.133333 12.8 12.8 0 25.6-4.266667 38.4-14.933333l298.666667-298.666667c17.066667-14.933333 21.333333-38.4 12.8-59.733333S846.933333 405.333333 825.6 405.333333H661.333333V119.466667c0-29.866667-2.133333-55.466667-32-55.466667h-234.666666C364.8 64 320 89.6 320 119.466667V405.333333H200.533333c-21.333333 0-36.266667 12.8-44.8 34.133334-8.533333 21.333333 0 44.8 17.066667 57.6L490.666667 800z m-149.333334-328.533333c29.866667 0 42.666667-23.466667 42.666667-53.333334V128h213.333333v290.133333c0 29.866667 44.8 51.2 74.666667 51.2h128L524.8 744.533333 232.533333 471.466667H341.333333z"  /></svg>