<?xml version="1.0" standalone="no"?><!DOCTYPE svg PUBLIC "-//W3C//DTD SVG 1.1//EN" "http://www.w3.org/Graphics/SVG/1.1/DTD/svg11.dtd"><svg class="icon" width="200px" height="200.00px" viewBox="0 0 1024 1024" version="1.1" xmlns="http://www.w3.org/2000/svg"><path fill="#cdcdcd" d="M961.944576 359.19872c-0.008192-56.706048-13.30176-106.271744-34.847744-145.4336-10.78272-19.580928-23.63904-36.576256-38.076416-50.532352-14.4384-13.943808-30.482432-24.876032-47.683584-32.017408-13.157376-5.45792-26.462208-9.35936-39.728128-11.880448-13.266944-2.523136-26.492928-3.668992-39.529472-3.667968-18.2784 0-36.170752 2.246656-53.436416 6.083584-30.220288 6.725632-58.537984 18.276352-84.130816 31.63648-19.192832 10.028032-36.859904 21.095424-52.612096 32.05632-23.624704 16.443392-42.949632 32.649216-56.497152 44.843008-1.068032 0.961536-2.085888 1.888256-3.081216 2.798592-1.197056-1.093632-2.428928-2.213888-3.730432-3.381248-10.46016-9.385984-24.265728-21.064704-40.753152-33.370112-24.740864-18.450432-55.484416-38.339584-90.294272-53.875712-17.409024-7.76192-35.847168-14.429184-55.095296-19.187712-19.244032-4.755456-39.313408-7.59808-59.874304-7.6032l-0.004096 0c-13.036544 0-26.262528 1.144832-39.530496 3.667968-13.26592 2.521088-26.570752 6.422528-39.727104 11.880448l0.001024 0c-17.202176 7.141376-33.245184 18.0736-47.683584 32.017408-10.829824 10.46528-20.765696 22.644736-29.607936 36.338688-13.2608 20.542464-24.068096 44.49792-31.586304 71.294976-7.515136 26.796032-11.72992 56.439808-11.730944 88.334336 0 18.31936 1.390592 37.379072 4.345856 57.066496l0-0.002048c1.876992 12.481536 5.392384 24.991744 10.156032 37.595136 8.953856 23.617536 22.291456 47.650816 38.63552 72.123392 14.309376 21.398528 30.952448 43.10016 49.137664 64.80384 31.823872 37.967872 68.383744 75.948032 105.383936 111.702016 55.494656 53.613568 111.981568 102.19008 154.68032 137.453568 42.694656 35.257344 71.591936 57.183232 71.806976 57.347072l15.47264 11.738112 15.47264-11.738112c0.198656-0.151552 25.142272-19.078144 62.902272-50.021376 28.319744-23.20896 63.849472-53.177344 101.578752-87.084032 28.29824-25.432064 57.833472-53.07904 86.510592-81.78688 21.508096-21.531648 42.534912-43.659264 62.208-65.928192 29.508608-33.419264 55.974912-67.093504 76.48768-99.90144 10.254336-16.415744 19.02592-32.626688 25.892864-48.644096 6.85568-16.021504 11.840512-31.86176 14.220288-47.659008l-0.001024 0.002048C960.553984 396.57984 961.944576 377.51808 961.944576 359.19872zM493.734912 286.258176 493.734912 286.258176 493.734912 286.258176 493.734912 286.258176zM530.902016 286.272512 530.902016 286.272512 530.902016 286.272512 530.902016 286.272512 530.902016 286.272512zM906.964992 408.669184l0 0.002048c-1.20832 8.086528-3.673088 17.2032-7.409664 27.070464-6.985728 18.514944-18.453504 39.584768-33.31072 61.78304-12.993536 19.438592-28.553216 39.776256-45.816832 60.37504-30.214144 36.059136-65.639424 72.911872-101.718016 107.766784-54.124544 52.297728-109.724672 100.129792-151.706624 134.797312-20.992 17.335296-38.58432 31.3856-50.899968 41.080832-1.325056 1.043456-2.576384 2.025472-3.776512 2.966528-11.104256-8.702976-27.621376-21.823488-47.72352-38.324224-27.99616-22.977536-62.92992-52.501504-99.79392-85.69344-27.648-24.894464-56.380416-51.852288-84.068352-79.630336-20.765696-20.832256-40.942592-42.126336-59.6224-63.323136-28.018688-31.77984-52.662272-63.403008-70.827008-92.577792-9.084928-14.574592-16.543744-28.525568-22.04672-41.414656-5.515264-12.886016-9.04192-24.69888-10.558464-34.878464l0-0.002048c-2.584576-17.22368-3.77856-33.7408-3.77856-49.468416-0.008192-48.673792 11.461632-89.814016 28.500992-120.743936 8.50944-15.465472 18.402304-28.362752 28.8-38.403072 10.397696-10.053632 21.277696-17.221632 31.7184-21.542912l0.001024 0c9.864192-4.089856 19.743744-6.985728 29.676544-8.875008 9.930752-1.888256 19.919872-2.766848 29.964288-2.766848 14.068736 0.001024 28.239872 1.737728 42.322944 4.86912 24.639488 5.46816 48.986112 15.254528 71.53152 27.040768 16.909312 8.832 32.800768 18.765824 47.076352 28.699648 21.41696 14.898176 39.192576 29.792256 51.48672 40.86272 6.148096 5.53472 10.929152 10.113024 14.124032 13.25568 1.59744 1.57184 2.797568 2.784256 3.575808 3.57888 0.388096 0.397312 0.67072 0.690176 0.8448 0.8704l0.178176 0.185344 0.0256 0.026624 0 0 0.019456 0.02048 0 0 18.57536 19.654656 18.569216-19.653632 0.00512-0.00512 0.02048-0.021504 0.011264-0.011264c0.376832-0.397312 7.909376-8.281088 20.842496-19.796992 9.700352-8.63744 22.436864-19.315712 37.438464-30.410752 22.491136-16.65024 50.102272-34.205696 79.924224-47.348736 14.907392-6.578176 30.355456-12.058624 45.960192-15.86688 15.608832-3.811328 31.36-5.950464 46.98112-5.94944 10.04544 0 20.033536 0.878592 29.966336 2.766848 9.9328 1.88928 19.813376 4.786176 29.677568 8.875008 10.441728 4.322304 21.321728 11.490304 31.720448 21.543936 7.796736 7.53152 15.31392 16.666624 22.171648 27.290624 10.2912 15.93344 19.094528 35.211264 25.300992 57.347072 6.208512 22.136832 9.828352 47.126528 9.828352 74.508288C910.744576 374.926336 909.550592 391.44448 906.964992 408.669184z" /></svg>