<?xml version="1.0" standalone="no"?><!DOCTYPE svg PUBLIC "-//W3C//DTD SVG 1.1//EN" "http://www.w3.org/Graphics/SVG/1.1/DTD/svg11.dtd"><svg class="icon" width="200px" height="200.00px" viewBox="0 0 1024 1024" version="1.1" xmlns="http://www.w3.org/2000/svg"><path fill="#cdcdcd" d="M511.639796 174.775582M141.333936 685.971263c40.523949 30.922267 91.309612 47.970548 142.992715 47.970548 46.213531 0 90.670046-13.235442 128.539538-38.228673 37.390585-24.693402 61.065797-58.970066 68.512397-99.454106l0.319272-2.116197c1.197268-8.843412-0.917906-17.327644-5.929036-23.915689-4.690836-6.16849-11.538801-10.121522-19.284205-11.159154-16.050558-2.255367-31.102369 9.521864-33.238009 25.332968l-0.339738 2.415003c-4.312212 23.296589-19.084661 43.85788-42.700521 59.448974-28.14706 18.60473-61.305251 28.426423-95.880721 28.426423-38.767955 0-76.776617-12.716626-107.039875-35.793204-11.018961-8.423857-19.84293-19.164478-25.532513-31.061436-12.037151-25.173332-11.458983-50.904367 1.696642-74.420967 19.104103-34.155914 61.983703-58.630329 111.910812-63.900356 51.66366-5.349845 104.165408 12.057617 135.266753 44.137243 5.629207 5.809309 13.155624 9.023514 21.160949 9.023514 14.812357 0 27.189246-10.600429 29.404704-25.213241l55.875588-368.989889c1.717108 0.478907 3.433192 0.978281 5.130857 1.497097 87.137593 26.430976 152.235217 105.482403 163.753551 196.113563-41.841967-26.790156-90.790796-41.382503-139.838885-41.382503-16.32992 0-29.624714 13.294794-29.624714 29.624714s13.294794 29.624714 29.624714 29.624714c55.79577 0 109.49581 23.596418 147.304927 64.739467 5.689582 6.187933 13.395078 9.601682 21.699208 9.601682 15.09172 0 27.489074-10.819416 29.484521-25.732058C753.370303 251.723092 665.155169 114.459868 529.408485 73.27691c-12.33698-3.733021-25.112957-6.687306-37.968753-8.78406-16.369829-2.595105-30.303166 5.669116-36.910655 20.86112-2.735297 6.308683-3.592828 12.316513-4.092201 17.806551l-50.406017 336.471264c-41.083697-23.515576-91.608417-34.17638-140.857075-29.02608-69.270666 7.28594-130.017192 43.4987-158.543899 94.503351-22.118763 39.585577-22.956851 85.160565-2.315742 128.300085C108.076484 653.751445 122.948193 671.937642 141.333936 685.971263zM683.240059 468.087884l257.06782 0 0 64.266699-257.06782 0 0-64.266699ZM469.017046 682.310897l471.290833 0 0 64.266699-471.290833 0 0-64.266699ZM83.415828 895.194402l856.892051 0 0 64.266699-856.892051 0 0-64.266699Z" /></svg>