<?xml version="1.0" standalone="no"?><!DOCTYPE svg PUBLIC "-//W3C//DTD SVG 1.1//EN" "http://www.w3.org/Graphics/SVG/1.1/DTD/svg11.dtd"><svg class="icon" width="200px" height="200.00px" viewBox="0 0 1024 1024" version="1.1" xmlns="http://www.w3.org/2000/svg"><path fill="#333333" d="M 63.6747 150.312 c 0 22.5127 18.4195 40.9322 40.9322 40.9322 l 46.0488 0 c 22.5127 0 40.9322 -18.4195 40.9322 -40.9322 l 0 -46.0488 c 0 -22.5127 -18.4195 -40.9322 -40.9322 -40.9322 l -46.0488 0 c -22.5127 0 -40.9322 18.4195 -40.9322 40.9322 L 63.6747 150.312 ZM 283.631 106.822 c -11.2564 0 -20.4661 9.20976 -20.4661 20.4661 l 0 0 c 0 11.2564 9.20976 20.4661 20.4661 20.4661 l 654.916 0 c 11.2564 0 20.4661 -9.20976 20.4661 -20.4661 l 0 0 c 0 -11.2564 -9.20976 -20.4661 -20.4661 -20.4661 L 283.631 106.822 ZM 63.6747 534.464 c 0 22.5127 18.4195 40.9322 40.9322 40.9322 l 46.0488 0 c 22.5127 0 40.9322 -18.4195 40.9322 -40.9322 l 0 -46.0488 c 0 -22.5127 -18.4195 -40.9322 -40.9322 -40.9322 l -46.0488 0 c -22.5127 0 -40.9322 18.4195 -40.9322 40.9322 L 63.6747 534.464 ZM 263.165 511.439 c 0 11.2564 9.20976 20.4661 20.4661 20.4661 l 654.916 0 c 11.2564 0 20.4661 -9.20976 20.4661 -20.4661 l 0 0 c 0 -11.2564 -9.20976 -20.4661 -20.4661 -20.4661 l -654.916 0 C 272.375 490.973 263.165 500.183 263.165 511.439 L 263.165 511.439 ZM 63.6747 919.056 c 0 22.5127 18.4195 40.9322 40.9322 40.9322 l 46.0488 0 c 22.5127 0 40.9322 -18.4195 40.9322 -40.9322 l 0 -46.0488 c 0 -22.5127 -18.4195 -40.9322 -40.9322 -40.9322 l -46.0488 0 c -22.5127 0 -40.9322 18.4195 -40.9322 40.9322 L 63.6747 919.056 ZM 263.164 896.031 c 0 11.2564 9.20976 20.4661 20.4661 20.4661 l 654.916 0 c 11.2564 0 20.4661 -9.20976 20.4661 -20.4661 l 0 0 c 0 -11.2564 -9.20976 -20.4661 -20.4661 -20.4661 l -654.916 0 C 272.374 875.565 263.164 884.775 263.164 896.031 L 263.164 896.031 Z" /></svg>