<?xml version="1.0" standalone="no"?><!DOCTYPE svg PUBLIC "-//W3C//DTD SVG 1.1//EN" "http://www.w3.org/Graphics/SVG/1.1/DTD/svg11.dtd"><svg t="1500972575494" class="icon" style="" viewBox="0 0 1167 1024" version="1.1" xmlns="http://www.w3.org/2000/svg" p-id="1299" xmlns:xlink="http://www.w3.org/1999/xlink" width="227.9296875" height="200"><defs><style type="text/css"></style></defs><path d="M99.33356246913587 653.2535435061727c23.066082923456797-6.398902676543209 36.56034986666666-30.293490093827156 30.16015265185185-53.332387713580246-7.175625639506173-25.866169204938274-10.826223565432098-52.72007111111111-10.826223565432098-79.86653866666666 0-164.1060276148148 133.51997187160495-297.6259994864197 297.6259994864197-297.6259994864197h403.2797405234568v76.77388673580248c0 24.64024146172839 17.146159407407406 34.1861666765432 38.08013779753087 21.199358735802473l184.77333112098765-114.45530674567902c20.932683851851852-12.985513402469136 21.144988128395063-34.53439747160494 0.4543829333333332-47.8940324345679l-185.67950791111107-119.91955279012346c-20.691899733333333-13.359634962962962-37.62575486419753-4.133460701234567-37.62575486419753 20.47959545679012v77.14671375802469h-403.30692582716034c-102.64005594074074 0-199.14658955061725 39.972752750617275-271.73264497777774 112.56010271604939-72.55887012345677 72.58734996543211-112.53421195061728 169.09258903703704-112.53421195061728 271.73264497777774 0 34.98619132839506 4.719886538271605 69.65392624197528 14.000431407407406 103.06595903209876 5.333497679012345 19.17470087901234 22.747626508641975 31.734311190123453 41.7346193382716 31.734311190123453 3.815004286419753 0 7.7335716345679-0.5048699259259259 11.600357451851853-1.6000493037037034z" fill="#cdcdcd" p-id="1300"></path><path d="M1097.5999216197529 383.7345589728396c-5.333497679012345-19.17470087901234-22.747626508641975-31.734311190123453-41.7346193382716-31.734311190123453-3.8396005135802467 0-7.7335716345679 0.5048699259259259-11.626248217283951 1.6000493037037034-23.066082923456797 6.398902676543209-36.56034986666666 30.293490093827156-30.16015265185185 53.332387713580246 7.174331101234569 25.866169204938274 10.826223565432098 52.72007111111111 10.826223565432098 79.86653866666666 0 164.1060276148148-133.52126640987655 297.6259994864197-297.6259994864197 297.6259994864197h-403.25384975802467v-76.77388673580248c0-24.64024146172839-17.146159407407406-34.1861666765432-38.08013779753087-21.199358735802473l-184.77333112098765 114.45530674567902c-20.932683851851852 12.985513402469136-21.144988128395063 34.53439747160494-0.4543829333333332 47.8940324345679l185.653617145679 119.91955279012346c20.693194271604934 13.359634962962962 37.62575486419753 4.133460701234567 37.62575486419753-20.47959545679012v-77.14671375802469h403.2797405234568c102.64005594074074 0 199.14658955061725-39.972752750617275 271.73264497777774-112.56010271604939s112.56010271604939-169.09258903703704 112.56010271604939-271.73264497777774c0-34.961595101234565-4.692701234567902-69.65392624197528-13.971951565432093-103.06595903209876z" fill="#cdcdcd" p-id="1301"></path></svg>