<?xml version="1.0" standalone="no"?><!DOCTYPE svg PUBLIC "-//W3C//DTD SVG 1.1//EN" "http://www.w3.org/Graphics/SVG/1.1/DTD/svg11.dtd"><svg t="1500973511103" class="icon" style="" viewBox="0 0 1024 1024" version="1.1" xmlns="http://www.w3.org/2000/svg" p-id="1401" xmlns:xlink="http://www.w3.org/1999/xlink" width="200" height="200"><defs><style type="text/css"></style></defs><path d="M790.4305522460937 881.2716336669921c11.399771118164063 0 20.624985076904295-9.223528106689452 20.624985076904295-20.624985076904295L811.055537322998 163.35166473388676c0-11.399771118164063-9.225213958740234-20.624142150878903-20.624985076904295-20.624142150878903s-20.624985076904295 9.224371032714842-20.624985076904295 20.624142150878903l0 330.11274627685543c0-9.849166259765624-12.870274108886719-18.490057800292966-22.195825927734376-24.330754028320314L285.93503726196286 180.2101720581055c-8.116434173583984-5.09532632446289-15.14601205444336-7.774946960449219-24.57274630737305-7.774946960449219-27.95557736206054 0-48.41867202758789 22.719440368652343-48.41867202758789 50.65478091430664L212.9436197509766 800.9099939880371c0 27.915104553222648 19.87877224731445 50.675017730712895 47.834349609375 50.675017730712895 9.426733428955078 0 17.281783081054687-2.699013702392578 25.398217254638674-7.8162626953125l462.15868771362307-288.91336651611334c9.324708892822265-5.841539154052732 21.46984991455078-14.480744842529298 21.46984991455078-24.329910278320312l0 330.1220209350586C769.8055671691894 872.0481063842775 779.0307811279297 881.2716336669921 790.4305522460937 881.2716336669921zM723.320302947998 519.9503283081056L262.8336376953125 808.8443017578126c-1.5708408508300782 0.9662824401855468-0.3625669555664063 1.4907389831542965-2.0548254089355464 1.4907389831542965-3.8069497375488277 0-6.586066131591798-3.020264923095703-6.586066131591798-9.425047576904298L254.19274615478514 223.0908489379883c0-6.445255462646485 2.7791155700683587-9.405654510498046 6.586066131591798-9.405654510498046 1.6922592773437501 0 1.9140147399902345 0.5033776245117187 3.4848564147949217 1.4705029907226561l459.74213827514643 288.9040918579102c3.825499877929687 2.397156372070312 4.067492156982422 6.002586639404297 4.067492156982422 7.9562304382324225C728.0732991333008 513.9485854187012 727.1264097595215 517.5540156860351 723.320302947998 519.9503283081056z" p-id="1402" fill="#cdcdcd"></path></svg>