<?xml version="1.0" standalone="no"?><!DOCTYPE svg PUBLIC "-//W3C//DTD SVG 1.1//EN" "http://www.w3.org/Graphics/SVG/1.1/DTD/svg11.dtd"><svg class="icon" width="200px" height="200.00px" viewBox="0 0 1024 1024" version="1.1" xmlns="http://www.w3.org/2000/svg"><path fill="#333333" d="M511.985778 1009.777778c-274.474667 0-497.777778-223.303111-497.777778-497.777778s223.303111-497.777778 497.777778-497.777778c274.488889 0 497.806222 223.303111 497.806222 497.777778S786.474667 1009.777778 511.985778 1009.777778zM511.985778 42.666667c-258.787556 0-469.333333 210.545778-469.333333 469.333333 0 258.801778 210.545778 469.333333 469.333333 469.333333 258.801778 0 469.361778-210.56 469.361778-469.333333C981.347556 253.198222 770.787556 42.666667 511.985778 42.666667zM404.906667 313.628444 404.906667 710.328889 404.906667 313.628444ZM369.351111 313.628444l71.111111 0 0 396.714667-71.111111 0 0-396.714667ZM619.093333 313.628444 619.093333 710.328889 619.093333 313.628444ZM583.537778 313.628444l71.111111 0 0 396.714667-71.111111 0 0-396.714667Z" /></svg>