<?xml version="1.0" standalone="no"?><!DOCTYPE svg PUBLIC "-//W3C//DTD SVG 1.1//EN" "http://www.w3.org/Graphics/SVG/1.1/DTD/svg11.dtd"><svg class="icon" width="200px" height="200.00px" viewBox="0 0 1024 1024" version="1.1" xmlns="http://www.w3.org/2000/svg"><path fill="#cdcdcd" d="M512 0.512C229.504 0.512 0.512 229.504 0.512 512S229.504 1023.488 512 1023.488 1023.488 794.496 1023.488 512 794.496 0.512 512 0.512zM512 974.464c-255.424 0-462.464-207.04-462.464-462.464S256.576 49.536 512 49.536 974.464 256.576 974.464 512 767.424 974.464 512 974.464zM416.768 769.792 413.184 769.792c-16.64 0-30.272-13.632-30.272-30.272L382.912 284.224c0-16.64 13.632-30.272 30.272-30.272l3.648 0c16.64 0 30.272 13.632 30.272 30.272l0 455.296C447.04 756.16 433.472 769.792 416.768 769.792zM609.216 767.424 606.208 767.424c-16.64 0-30.272-13.632-30.272-30.272L575.936 286.848c0-16.64 13.632-30.272 30.272-30.272l3.008 0c16.64 0 30.272 13.632 30.272 30.272l0 450.304C639.488 753.792 625.856 767.424 609.216 767.424z" /></svg>