<?xml version="1.0" standalone="no"?><!DOCTYPE svg PUBLIC "-//W3C//DTD SVG 1.1//EN" "http://www.w3.org/Graphics/SVG/1.1/DTD/svg11.dtd"><svg t="1501126304072" class="icon" style="" viewBox="0 0 1024 1024" version="1.1" xmlns="http://www.w3.org/2000/svg" p-id="1088" xmlns:xlink="http://www.w3.org/1999/xlink" width="200" height="200"><defs><style type="text/css"></style></defs><path d="M512 32.480000000000075C247.15999999999997 32.480000000000075 32.480000000000075 247.15999999999997 32.480000000000075 512S247.15999999999997 991.52 512 991.52 991.52 776.8399999999999 991.52 512 776.8399999999999 32.480000000000075 512 32.480000000000075zM512 945.5600000000002c-239.46 0-433.55999999999995-194.1-433.55999999999995-433.55999999999995S272.54 78.44000000000005 512 78.44000000000005 945.5600000000002 272.54 945.5600000000002 512 751.46 945.5600000000002 512 945.5600000000002z" p-id="1089" fill="#cdcdcd"></path><path d="M422.71999999999997 753.6800000000001L419.35999999999996 753.6800000000001c-15.600000000000001 0-28.38-12.78-28.38-28.38L390.9799999999999 298.46c0-15.600000000000001 12.78-28.38 28.38-28.38l3.42 0c15.600000000000001 0 28.38 12.78 28.38 28.38l0 426.8399999999999C451.1 740.9 438.38 753.6800000000001 422.71999999999997 753.6800000000001z" p-id="1090" fill="#cdcdcd"></path><path d="M603.14 751.46L600.3199999999999 751.46c-15.600000000000001 0-28.38-12.78-28.38-28.38L571.94 300.92c0-15.600000000000001 12.78-28.38 28.38-28.38l2.82 0c15.600000000000001 0 28.38 12.78 28.38 28.38l0 422.15999999999997C631.52 738.6800000000001 618.74 751.46 603.14 751.46z" p-id="1091" fill="#cdcdcd"></path></svg>