<?xml version="1.0" standalone="no"?><!DOCTYPE svg PUBLIC "-//W3C//DTD SVG 1.1//EN" "http://www.w3.org/Graphics/SVG/1.1/DTD/svg11.dtd"><svg t="1500973532303" class="icon" style="" viewBox="0 0 1024 1024" version="1.1" xmlns="http://www.w3.org/2000/svg" p-id="1933" xmlns:xlink="http://www.w3.org/1999/xlink" width="200" height="200"><defs><style type="text/css"></style></defs><path d="M512 90.54687500000006C279.23046875 90.54687500000006 90.54687500000006 279.23046875 90.54687500000006 512S279.23046875 933.453125 512 933.453125 933.453125 744.7695312499999 933.453125 512 744.7695312499999 90.54687500000006 512 90.54687500000006zM512 893.0585937500001c-210.462890625 0-381.05859375-170.595703125-381.05859375-381.05859375S301.537109375 130.94140625 512 130.94140625 893.0585937500001 301.537109375 893.0585937500001 512 722.4628906250001 893.0585937500001 512 893.0585937500001z" p-id="1934" fill="#cdcdcd"></path><path d="M433.53124999999994 724.4140625L430.578125 724.4140625c-13.710937500000002 0-24.943359375-11.232421875-24.943359375-24.943359375L405.63476562499994 324.318359375c0-13.710937500000002 11.232421875-24.943359375 24.943359375-24.943359375l3.005859375 0c13.710937500000002 0 24.943359375 11.232421875 24.943359375 24.943359375l0 375.15234374999994C458.474609375 713.181640625 447.294921875 724.4140625 433.53124999999994 724.4140625z" p-id="1935" fill="#cdcdcd"></path><path d="M592.103515625 722.4628906250001L589.625 722.4628906250001c-13.710937500000002 0-24.943359375-11.232421875-24.943359375-24.943359375L564.681640625 326.48046875c0-13.710937500000002 11.232421875-24.943359375 24.943359375-24.943359375l2.478515625 0c13.710937500000002 0 24.943359375 11.232421875 24.943359375 24.943359375l0 371.0390625C617.046875 711.23046875 605.814453125 722.4628906250001 592.103515625 722.4628906250001z" p-id="1936" fill="#cdcdcd"></path></svg>