<?xml version="1.0" standalone="no"?><!DOCTYPE svg PUBLIC "-//W3C//DTD SVG 1.1//EN" "http://www.w3.org/Graphics/SVG/1.1/DTD/svg11.dtd"><svg t="1500973524826" class="icon" style="" viewBox="0 0 1024 1024" version="1.1" xmlns="http://www.w3.org/2000/svg" p-id="1759" xmlns:xlink="http://www.w3.org/1999/xlink" width="200" height="200"><defs><style type="text/css"></style></defs><path d="M233.56860482788085 142.72752258300778c-11.399771118164063 0-20.624142150878903 9.224371032714842-20.624142150878903 20.624142150878903l0 697.2949838562012c0 11.400614044189453 9.224371032714842 20.624985076904295 20.624142150878903 20.624985076904295 11.400614044189453 0 20.624142150878903-9.223528106689452 20.624142150878903-20.624985076904295l0-333.4854597473145c0 11.861833007812502 7.150152557373046 22.235455810546874 18.006073242187497 29.063513397216795l453.83989031982424 286.0136762695312c8.37950619506836 5.276609802246094 20.463937591552735 8.056569122314453 30.21107931518555 8.056569122314453 28.842600860595706 0 54.804904541015624-23.484202514648437 54.804904541015624-52.28717431640625L811.0546943969728 225.9905391845703c0-28.82236486816406-26.99013784790039-52.266094573974605-55.810816864013674-52.266094573974605-9.729434509277345 0-21.06765390014648 2.7791155700683587-29.447160095214848 8.036332305908203L273.0647639770508 467.765178527832c-10.85592068481445 6.80782159423828-18.872016998291016 17.199994537353515-18.872016998291016 29.043277404785155L254.19274615478514 163.35166473388676C254.19274615478514 151.9518936157226 244.9683759460449 142.72752258300778 233.56860482788085 142.72752258300778zM290.1045547790527 502.6896249694824L745.9587976989746 216.70545935058595c1.8313832702636719-1.1475659179687498 7.290119476318359-1.7318883361816406 9.285079833984375-1.7318883361816406 5.296002868652344 0 14.561689636230469 4.2091465759277344 14.561689636230469 11.016968170166015l0 572.017234954834c0 9.345788635253903-13.61564318847656 13.49591226196289-20.32228399658203 9.306159576416015L291.8769151000977 521.3002566223145c-4.6324215087890614-2.9410059814453122-6.042215698242188-7.492482696533204-6.042215698242188-9.305315826416013C285.83469940185546 510.14163485717773 285.47213244628904 505.5901581420898 290.1045547790527 502.6896249694824z" p-id="1760" fill="#cdcdcd"></path></svg>