<?xml version="1.0" standalone="no"?><!DOCTYPE svg PUBLIC "-//W3C//DTD SVG 1.1//EN" "http://www.w3.org/Graphics/SVG/1.1/DTD/svg11.dtd"><svg class="icon" width="200px" height="200.00px" viewBox="0 0 1024 1024" version="1.1" xmlns="http://www.w3.org/2000/svg"><path fill="#333333" d="M952.64 689.792l-123.52-83.84c-33.344-22.656-75.328 0.768-75.392 39.872l0 27.776-26.624 0 0-0.704c-3.2 0.128-6.016 0.704-9.28 0.704-105.28 0-162.624-54.4-220.8-122.496 58.176-68.16 115.584-122.496 220.8-122.496 3.328 0 6.08 0.576 9.28 0.704L727.104 428.608l71.552 0L798.656 427.456c0.256 0 0.512 0.128 0.768 0.128 9.344 0 17.152-5.376 21.76-12.992l3.2 0L824.384 406.208c0.32-1.728 1.024-3.328 1.024-5.184s-0.704-3.456-1.024-5.184L824.384 363.52l63.68 43.2-48.064 32.576-26.112 19.84c-6.528-4.864-14.208-8.256-22.976-8.256-21.696 0-39.296 17.6-39.296 39.296 0 6.464 1.92 12.288 4.672 17.6 5.504 20.544 21.312 35.264 42.56 35.264 10.048 0 20.352-3.392 29.632-9.728l123.52-83.84c15.168-10.304 23.808-25.984 23.808-43.008-0.064-17.024-8.768-32.64-23.808-42.752l-123.52-83.84c-33.344-22.656-75.328 0.768-75.392 39.872l0 27.2-35.2 0c-132.8 0-209.344 70.4-272.384 143.104C382.464 417.664 306.048 347.52 173.504 347.52L173.504 347.072 92.672 347.072l0 0.896c-0.448 0-0.832-0.256-1.344-0.256C69.184 347.712 51.2 365.696 51.2 387.84c0 22.144 17.984 40.128 40.128 40.128 0.448 0 0.832-0.256 1.344-0.256l0 0.832 80.832 0 0 0.448c105.024 0 162.304 54.144 220.416 122.048-58.048 67.904-115.392 122.048-220.416 122.048l0 0.512L92.672 673.6l0 0.512c-0.32 0-0.576-0.192-0.896-0.192-22.144 0-40.128 17.984-40.128 40.128 0 22.144 17.984 40.128 40.128 40.128 0.32 0 0.576-0.192 0.896-0.192l0 1.024 80.832 0 0-0.448c132.544 0 208.96-70.144 271.936-142.592 63.04 72.704 139.584 143.104 272.384 143.104l80.832 0L798.656 753.28c0.512 0 0.96 0.32 1.472 0.32 9.344 0 17.152-5.376 21.76-12.992l3.2 0L825.088 732.16c0.32-1.728 1.024-3.328 1.024-5.184s-0.704-3.456-1.024-5.184l0-32.32 63.68 43.2-48.064 32.576-26.112 19.84c-6.528-4.864-14.208-8.256-22.976-8.256-21.696 0-39.296 17.6-39.296 39.296 0 6.464 1.92 12.288 4.672 17.6 5.504 20.544 21.312 35.264 42.56 35.264 10.048 0 20.352-3.392 29.632-9.728l123.52-83.84c15.168-10.304 23.808-25.984 23.808-43.008C976.384 715.52 967.68 699.904 952.64 689.792z" /></svg>