<?xml version="1.0" standalone="no"?><!DOCTYPE svg PUBLIC "-//W3C//DTD SVG 1.1//EN" "http://www.w3.org/Graphics/SVG/1.1/DTD/svg11.dtd"><svg class="icon" width="200px" height="200.00px" viewBox="0 0 1024 1024" version="1.1" xmlns="http://www.w3.org/2000/svg"><path fill="#c13725" d="M950.06715 1.542122c-1.222851 0-2.288113 0.521886-3.455705 0.703011l-0.069585-0.431835L343.226109 94.632287l0.058328 0.431835c-11.091616 1.744737-19.73753 10.92277-19.73753 22.50148l0 696.656627c-19.431561-14.686491-43.37181-23.703865-69.613474-23.703865l-92.817965 0c-64.072271 0-116.022457 51.938929-116.022457 116.022457 0 64.061015 51.950186 115.998921 116.022457 115.998921l92.817965 0c64.083527 0 116.022457-51.938929 116.022457-115.998921L369.95589 369.528148l556.907793-85.680405 0 391.166981c-19.431561-14.683421-43.37181-23.747867-69.613474-23.747867L764.43122 651.266857c-64.072271 0-116.022457 51.961442-116.022457 116.022457 0 64.083527 51.950186 116.022457 116.022457 116.022457l92.817965 0c64.083527 0 116.022457-51.938929 116.022457-116.022457L973.271642 24.746614C973.271642 11.943007 962.880991 1.542122 950.06715 1.542122zM253.933433 976.130759l-92.817965 0c-38.443567 0-69.613474-31.15865-69.613474-69.589938 0-38.45687 31.169907-69.63701 69.613474-69.63701l92.817965 0c38.442544 0 69.613474 31.18014 69.613474 69.63701C323.545884 944.972109 292.375977 976.130759 253.933433 976.130759zM857.249185 836.903811 764.43122 836.903811c-38.443567 0-69.613474-31.15865-69.613474-69.613474 0-38.433334 31.169907-69.613474 69.613474-69.613474l92.817965 0c38.442544 0 69.613474 31.18014 69.613474 69.613474C926.862659 805.745161 895.691729 836.903811 857.249185 836.903811zM926.862659 236.896408 369.954867 322.576813 369.954867 137.483234l556.907793-85.680405L926.862659 236.896408z" /></svg>